<?xml version="1.0" encoding="utf-8"?>
<!-- Generator: Adobe Illustrator 24.1.1, SVG Export Plug-In . SVG Version: 6.00 Build 0)  -->
<svg version="1.1" id="Layer_1" xmlns="http://www.w3.org/2000/svg" xmlns:xlink="http://www.w3.org/1999/xlink" x="0px" y="0px"
	 viewBox="0 0 316.1 89.9" style="enable-background:new 0 0 316.1 89.9;" xml:space="preserve">
<g>
	<path d="M100.1,84.3c-0.9,0-1.7-0.3-2.2-0.8s-0.8-1.3-0.8-2.4v-9.5h-2c-0.1,0-0.2,0-0.3-0.1c-0.1-0.1-0.1-0.1-0.1-0.2v-0.5l2.4-0.2
		l0.3-5c0-0.1,0-0.2,0.1-0.2s0.1-0.1,0.2-0.1h0.6v5.3h4.4v1h-4.4V81c0,0.4,0,0.7,0.1,1s0.2,0.5,0.4,0.7c0.2,0.2,0.4,0.3,0.6,0.4
		s0.5,0.1,0.8,0.1s0.6,0,0.9-0.1c0.2-0.1,0.4-0.2,0.6-0.3c0.2-0.1,0.3-0.2,0.4-0.3c0.1-0.1,0.2-0.1,0.3-0.1c0.1,0,0.1,0,0.2,0.1
		l0.4,0.6c-0.4,0.4-0.8,0.7-1.3,0.9C101.3,84.2,100.7,84.3,100.1,84.3z"/>
	<path d="M112.3,65.5c0,0.2,0,0.3-0.1,0.5c-0.1,0.1-0.2,0.3-0.3,0.4c-0.1,0.1-0.2,0.2-0.4,0.3c-0.1,0.1-0.3,0.1-0.5,0.1
		s-0.3,0-0.5-0.1c-0.1-0.1-0.3-0.2-0.4-0.3s-0.2-0.2-0.3-0.4c-0.1-0.1-0.1-0.3-0.1-0.5s0-0.3,0.1-0.5s0.2-0.3,0.3-0.4
		c0.1-0.1,0.2-0.2,0.4-0.3c0.1-0.1,0.3-0.1,0.5-0.1s0.3,0,0.5,0.1c0.1,0.1,0.3,0.2,0.4,0.3s0.2,0.2,0.3,0.4
		C112.3,65.2,112.3,65.3,112.3,65.5z M111.7,70.3v13.8h-1.3V70.3H111.7z"/>
	<path d="M125.5,70.1c0.8,0,1.5,0.1,2.2,0.4s1.2,0.7,1.7,1.2s0.9,1.1,1.1,1.9c0.3,0.8,0.4,1.6,0.4,2.6c0,0.2,0,0.3-0.1,0.4
		s-0.2,0.1-0.3,0.1h-10V77c0,1,0.1,2,0.4,2.7c0.2,0.8,0.6,1.4,1,2c0.4,0.5,1,0.9,1.6,1.2c0.6,0.3,1.3,0.4,2.1,0.4
		c0.7,0,1.3-0.1,1.8-0.2c0.5-0.2,0.9-0.3,1.3-0.5c0.3-0.2,0.6-0.4,0.8-0.5c0.2-0.2,0.4-0.2,0.4-0.2c0.1,0,0.2,0,0.3,0.1l0.4,0.4
		c-0.2,0.3-0.5,0.5-0.9,0.8c-0.4,0.2-0.8,0.4-1.2,0.6c-0.5,0.2-0.9,0.3-1.4,0.4s-1,0.2-1.6,0.2c-0.9,0-1.8-0.2-2.6-0.5
		c-0.8-0.3-1.4-0.8-2-1.4s-1-1.4-1.3-2.3s-0.5-2-0.5-3.1c0-1,0.1-1.9,0.4-2.7c0.3-0.8,0.7-1.6,1.2-2.2s1.2-1.1,2-1.4
		C123.6,70.2,124.5,70.1,125.5,70.1z M125.5,71c-0.7,0-1.4,0.1-1.9,0.3c-0.6,0.2-1.1,0.5-1.5,1c-0.4,0.4-0.7,0.9-1,1.5
		s-0.4,1.2-0.5,2h9.1c0-0.7-0.1-1.4-0.3-2s-0.5-1.1-0.9-1.5s-0.8-0.7-1.3-0.9S126.2,71,125.5,71z"/>
	<path d="M138.2,84.1V70.3h0.7c0.2,0,0.4,0.1,0.4,0.3l0.1,2.1c0.6-0.8,1.4-1.4,2.2-1.9s1.8-0.7,2.8-0.7c0.8,0,1.4,0.1,2,0.4
		c0.6,0.2,1.1,0.6,1.4,1c0.4,0.5,0.7,1,0.9,1.6s0.3,1.4,0.3,2.2v8.8h-1.3v-8.8c0-1.3-0.3-2.3-0.9-3.1c-0.6-0.7-1.5-1.1-2.7-1.1
		c-0.9,0-1.8,0.2-2.5,0.7c-0.8,0.5-1.5,1.1-2.1,1.9v10.4C139.5,84.1,138.2,84.1,138.2,84.1z"/>
	<path d="M166.8,84.1c-0.2,0-0.4-0.1-0.4-0.4l-0.1-2.2c-0.6,0.8-1.3,1.5-2.2,2c-0.8,0.5-1.7,0.7-2.8,0.7c-1.7,0-3-0.6-4-1.8
		c-1-1.2-1.4-2.9-1.4-5.3c0-1,0.1-2,0.4-2.8c0.3-0.9,0.7-1.6,1.2-2.3c0.5-0.6,1.1-1.2,1.9-1.5c0.7-0.4,1.6-0.6,2.6-0.6
		c0.9,0,1.7,0.2,2.4,0.5s1.3,0.9,1.8,1.5v-8.2h1.3v20.2h-0.7V84.1z M161.7,83.2c0.9,0,1.7-0.2,2.5-0.7c0.7-0.5,1.4-1.1,2-2v-7.3
		c-0.5-0.8-1.1-1.3-1.8-1.7c-0.6-0.3-1.4-0.5-2.2-0.5s-1.5,0.1-2.1,0.4s-1.1,0.7-1.5,1.3c-0.4,0.5-0.7,1.2-0.9,1.9
		c-0.2,0.8-0.3,1.6-0.3,2.5c0,2.1,0.4,3.6,1.1,4.5S160.3,83.2,161.7,83.2z"/>
	<path d="M184.7,84.1c-0.3,0-0.4-0.1-0.5-0.4l-0.2-1.8c-0.4,0.4-0.8,0.7-1.1,1c-0.4,0.3-0.8,0.5-1.2,0.8c-0.4,0.2-0.8,0.4-1.3,0.5
		s-1,0.2-1.6,0.2c-0.5,0-0.9-0.1-1.4-0.2c-0.4-0.1-0.8-0.4-1.2-0.6c-0.3-0.3-0.6-0.7-0.8-1.1s-0.3-1-0.3-1.6s0.2-1.1,0.5-1.6
		s0.9-0.9,1.6-1.3c0.7-0.4,1.6-0.7,2.7-0.9c1.1-0.2,2.5-0.4,4-0.4v-1.4c0-1.3-0.3-2.3-0.8-3c-0.6-0.7-1.4-1-2.5-1
		c-0.7,0-1.2,0.1-1.7,0.3c-0.5,0.2-0.9,0.4-1.2,0.6s-0.6,0.4-0.8,0.6s-0.4,0.3-0.5,0.3c-0.2,0-0.3-0.1-0.4-0.3l-0.2-0.4
		c0.7-0.7,1.5-1.3,2.3-1.6s1.7-0.6,2.7-0.6c0.7,0,1.4,0.1,1.9,0.4c0.6,0.2,1,0.6,1.4,1s0.6,1,0.8,1.6s0.3,1.3,0.3,2.1v9h-0.5V84.1z
		 M179.1,83.4c0.5,0,1-0.1,1.5-0.2c0.4-0.1,0.9-0.3,1.3-0.5c0.4-0.2,0.7-0.5,1.1-0.7c0.3-0.3,0.7-0.6,1-0.9v-3.6
		c-1.3,0-2.4,0.1-3.4,0.3c-1,0.2-1.7,0.4-2.3,0.7c-0.6,0.3-1.1,0.6-1.4,1s-0.4,0.8-0.4,1.3s0.1,0.9,0.2,1.2c0.2,0.3,0.4,0.6,0.6,0.8
		c0.3,0.2,0.5,0.4,0.9,0.5C178.4,83.3,178.7,83.4,179.1,83.4z"/>
	<path d="M211.9,84.1c-0.2,0-0.4-0.1-0.4-0.4l-0.1-2.2c-0.6,0.8-1.3,1.5-2.2,2c-0.8,0.5-1.7,0.7-2.8,0.7c-1.7,0-3-0.6-4-1.8
		c-1-1.2-1.4-2.9-1.4-5.3c0-1,0.1-2,0.4-2.8c0.3-0.9,0.7-1.6,1.2-2.3c0.5-0.6,1.1-1.2,1.9-1.5c0.7-0.4,1.6-0.6,2.6-0.6
		c0.9,0,1.7,0.2,2.4,0.5s1.3,0.9,1.8,1.5v-8.2h1.3v20.2h-0.7V84.1z M206.9,83.2c0.9,0,1.7-0.2,2.5-0.7c0.7-0.5,1.4-1.1,2-2v-7.3
		c-0.5-0.8-1.1-1.3-1.8-1.7c-0.6-0.3-1.4-0.5-2.2-0.5s-1.5,0.1-2.1,0.4s-1.1,0.7-1.5,1.3c-0.4,0.5-0.7,1.2-0.9,1.9
		c-0.2,0.8-0.3,1.6-0.3,2.5c0,2.1,0.4,3.6,1.1,4.5S205.4,83.2,206.9,83.2z"/>
	<path d="M226.2,70.1c0.8,0,1.5,0.1,2.2,0.4s1.2,0.7,1.7,1.2s0.9,1.1,1.1,1.9c0.3,0.8,0.4,1.6,0.4,2.6c0,0.2,0,0.3-0.1,0.4
		s-0.2,0.1-0.3,0.1h-10V77c0,1,0.1,2,0.4,2.7c0.2,0.8,0.6,1.4,1,2c0.4,0.5,1,0.9,1.6,1.2c0.6,0.3,1.3,0.4,2.1,0.4
		c0.7,0,1.3-0.1,1.8-0.2s0.9-0.3,1.3-0.5c0.3-0.2,0.6-0.4,0.8-0.5c0.2-0.2,0.4-0.2,0.4-0.2c0.1,0,0.2,0,0.3,0.1l0.4,0.4
		c-0.2,0.3-0.5,0.5-0.9,0.8c-0.4,0.2-0.8,0.4-1.2,0.6c-0.5,0.2-0.9,0.3-1.4,0.4s-1,0.2-1.6,0.2c-0.9,0-1.8-0.2-2.6-0.5
		s-1.4-0.8-2-1.4s-1-1.4-1.3-2.3s-0.5-2-0.5-3.1c0-1,0.1-1.9,0.4-2.7c0.3-0.8,0.7-1.6,1.2-2.2s1.2-1.1,2-1.4
		C224.4,70.2,225.2,70.1,226.2,70.1z M226.2,71c-0.7,0-1.4,0.1-1.9,0.3c-0.6,0.2-1.1,0.5-1.5,1c-0.4,0.4-0.7,0.9-1,1.5
		s-0.4,1.2-0.5,2h9.1c0-0.7-0.1-1.4-0.3-2s-0.5-1.1-0.9-1.5s-0.8-0.7-1.3-0.9C227.4,71.2,226.9,71,226.2,71z"/>
	<path d="M251,88.6c-0.1,0.1-0.1,0.2-0.2,0.3c-0.1,0.1-0.2,0.1-0.4,0.1h-0.9l2.4-5.4L246,70.3h1.1c0.1,0,0.2,0,0.3,0.1
		s0.1,0.1,0.2,0.2l4.7,10.8c0.1,0.1,0.1,0.3,0.1,0.4s0.1,0.3,0.1,0.4c0-0.1,0.1-0.3,0.1-0.4c0.1-0.1,0.1-0.3,0.2-0.4l4.6-10.8
		c0-0.1,0.1-0.2,0.2-0.2c0.1-0.1,0.2-0.1,0.3-0.1h1L251,88.6z"/>
	<path d="M270.2,70.1c1,0,1.9,0.2,2.7,0.5c0.8,0.3,1.4,0.8,2,1.4c0.5,0.6,0.9,1.4,1.2,2.2c0.3,0.9,0.4,1.9,0.4,2.9
		c0,1.1-0.1,2.1-0.4,2.9c-0.3,0.9-0.7,1.6-1.2,2.2s-1.2,1.1-2,1.4s-1.7,0.5-2.7,0.5s-1.9-0.2-2.7-0.5c-0.8-0.3-1.4-0.8-2-1.4
		s-1-1.4-1.2-2.2c-0.3-0.9-0.4-1.8-0.4-2.9s0.1-2.1,0.4-2.9c0.3-0.9,0.7-1.6,1.2-2.2s1.2-1.1,2-1.4
		C268.4,70.2,269.2,70.1,270.2,70.1z M270.2,83.3c0.8,0,1.5-0.1,2.2-0.4c0.6-0.3,1.1-0.7,1.5-1.2s0.7-1.2,0.9-1.9
		c0.2-0.7,0.3-1.6,0.3-2.5s-0.1-1.8-0.3-2.5s-0.5-1.4-0.9-1.9s-0.9-0.9-1.5-1.2c-0.6-0.3-1.3-0.4-2.2-0.4c-0.8,0-1.5,0.1-2.2,0.4
		c-0.6,0.3-1.1,0.7-1.5,1.2s-0.7,1.2-0.9,1.9c-0.2,0.8-0.3,1.6-0.3,2.5s0.1,1.8,0.3,2.5c0.2,0.7,0.5,1.4,0.9,1.9s0.9,0.9,1.5,1.2
		C268.7,83.1,269.4,83.3,270.2,83.3z"/>
	<path d="M288.3,70c0.6,0,1.2,0.1,1.7,0.2s1,0.4,1.4,0.6h3.5v0.5c0,0.2-0.1,0.4-0.4,0.4l-2.1,0.2c0.3,0.4,0.5,0.7,0.6,1.2
		c0.1,0.4,0.2,0.9,0.2,1.4c0,0.7-0.1,1.3-0.4,1.8c-0.2,0.5-0.6,1-1,1.4s-0.9,0.7-1.6,0.9c-0.6,0.2-1.3,0.3-2,0.3
		c-0.8,0-1.5-0.1-2.2-0.4c-0.4,0.2-0.7,0.5-0.9,0.8c-0.2,0.3-0.3,0.6-0.3,0.9c0,0.4,0.1,0.7,0.4,0.9c0.3,0.2,0.6,0.4,1.1,0.5
		s1,0.2,1.6,0.2s1.2,0.1,1.8,0.1c0.6,0,1.2,0.1,1.8,0.2c0.6,0.1,1.1,0.2,1.6,0.4c0.5,0.2,0.8,0.5,1.1,0.9c0.3,0.4,0.4,0.9,0.4,1.5
		s-0.1,1.1-0.4,1.7c-0.3,0.5-0.7,1-1.2,1.4s-1.2,0.7-2,1c-0.8,0.2-1.6,0.4-2.6,0.4s-1.8-0.1-2.6-0.3c-0.7-0.2-1.3-0.5-1.8-0.8
		s-0.9-0.7-1.1-1.2c-0.3-0.4-0.4-0.9-0.4-1.4c0-0.7,0.2-1.4,0.7-1.9s1.1-0.9,2-1.2c-0.5-0.2-0.8-0.4-1.1-0.7
		c-0.3-0.3-0.4-0.7-0.4-1.2c0-0.2,0-0.4,0.1-0.6s0.2-0.4,0.3-0.6c0.1-0.2,0.3-0.4,0.5-0.6s0.5-0.4,0.7-0.5c-0.7-0.4-1.2-0.9-1.5-1.5
		c-0.4-0.6-0.5-1.4-0.5-2.2c0-0.7,0.1-1.3,0.4-1.8s0.6-1,1-1.4s1-0.7,1.6-0.9C286.9,70.1,287.5,70,288.3,70z M293.4,85
		c0-0.4-0.1-0.8-0.3-1c-0.2-0.3-0.5-0.5-0.9-0.6s-0.8-0.3-1.3-0.3c-0.5-0.1-1-0.1-1.6-0.1c-0.5,0-1.1-0.1-1.6-0.1s-1.1-0.1-1.5-0.2
		c-0.4,0.1-0.7,0.3-1,0.5s-0.6,0.4-0.8,0.6c-0.2,0.2-0.4,0.5-0.5,0.8s-0.2,0.6-0.2,0.9c0,0.4,0.1,0.8,0.3,1.1
		c0.2,0.3,0.5,0.6,0.9,0.9s0.9,0.5,1.5,0.6s1.3,0.2,2,0.2s1.4-0.1,2-0.2c0.6-0.2,1.1-0.4,1.6-0.7s0.8-0.6,1.1-1
		C293.3,86,293.4,85.5,293.4,85z M288.3,78c0.6,0,1.1-0.1,1.6-0.3c0.5-0.2,0.9-0.4,1.2-0.7c0.3-0.3,0.6-0.7,0.7-1.1
		c0.2-0.4,0.2-0.9,0.2-1.4s-0.1-1-0.3-1.4c-0.2-0.4-0.4-0.8-0.7-1.1c-0.3-0.3-0.7-0.5-1.2-0.7s-1-0.3-1.6-0.3s-1.1,0.1-1.6,0.3
		c-0.5,0.2-0.9,0.4-1.2,0.7c-0.3,0.3-0.6,0.7-0.7,1.1c-0.2,0.4-0.3,0.9-0.3,1.4s0.1,1,0.3,1.4c0.2,0.4,0.4,0.8,0.7,1.1
		c0.3,0.3,0.7,0.5,1.2,0.7C287.2,77.9,287.7,78,288.3,78z"/>
	<path d="M310.3,84.1c-0.3,0-0.4-0.1-0.5-0.4l-0.2-1.8c-0.4,0.4-0.8,0.7-1.1,1c-0.4,0.3-0.8,0.5-1.2,0.8c-0.4,0.2-0.8,0.4-1.3,0.5
		s-1,0.2-1.6,0.2c-0.5,0-0.9-0.1-1.4-0.2c-0.4-0.1-0.8-0.4-1.2-0.6c-0.3-0.3-0.6-0.7-0.8-1.1c-0.2-0.4-0.3-1-0.3-1.6
		s0.2-1.1,0.5-1.6s0.9-0.9,1.6-1.3s1.6-0.7,2.7-0.9c1.1-0.2,2.5-0.4,4-0.4v-1.4c0-1.3-0.3-2.3-0.8-3c-0.6-0.7-1.4-1-2.5-1
		c-0.7,0-1.2,0.1-1.7,0.3c-0.5,0.2-0.9,0.4-1.2,0.6c-0.3,0.2-0.6,0.4-0.8,0.6c-0.2,0.2-0.4,0.3-0.5,0.3c-0.2,0-0.3-0.1-0.4-0.3
		l-0.2-0.4c0.7-0.7,1.5-1.3,2.3-1.6c0.8-0.4,1.7-0.6,2.7-0.6c0.7,0,1.4,0.1,1.9,0.4c0.6,0.2,1,0.6,1.4,1s0.6,1,0.8,1.6
		c0.2,0.6,0.3,1.3,0.3,2.1v9h-0.5V84.1z M304.7,83.4c0.5,0,1-0.1,1.5-0.2c0.4-0.1,0.9-0.3,1.3-0.5s0.7-0.5,1.1-0.7
		c0.3-0.3,0.7-0.6,1-0.9v-3.6c-1.3,0-2.5,0.1-3.4,0.3c-1,0.2-1.7,0.4-2.4,0.7c-0.6,0.3-1.1,0.6-1.4,1s-0.4,0.8-0.4,1.3
		s0.1,0.9,0.2,1.2c0.2,0.3,0.4,0.6,0.6,0.8c0.3,0.2,0.5,0.4,0.9,0.5C304,83.3,304.3,83.4,304.7,83.4z"/>
</g>
<g>
	<path d="M94.1,55.6V2.3h9.5v53.3H94.1z M100.8,47.4l-0.9-9l17.8-13.1l5.7,5.1L100.8,47.4z M111.1,35.5l13.4,20.1h-11l-8.6-14.7
		L111.1,35.5z"/>
	<path d="M142.8,56.4c-2.7,0-5.2-0.6-7.5-1.7c-2.2-1.1-4-2.8-5.3-5.1s-2-5.2-2-8.8c0-3.3,0.7-6.2,2-8.6c1.4-2.4,3.1-4.3,5.3-5.6
		c2.2-1.3,4.5-2,7-2c2.9,0,5.1,0.5,6.7,1.5c1.5,1,2.8,2,3.7,3.2l-0.4,1.1l0.9-4.3h8.8v29.5h-9.5v-6.4l0.7,2c-0.1,0-0.4,0.3-0.8,0.8
		c-0.5,0.5-1.1,1.1-2,1.8s-2,1.3-3.2,1.8C146.1,56.1,144.5,56.4,142.8,56.4z M145.5,48.7c1.1,0,2.1-0.2,3-0.5s1.7-0.8,2.4-1.5
		s1.3-1.5,1.8-2.5V37c-0.4-1-0.9-1.8-1.6-2.5c-0.7-0.7-1.6-1.2-2.6-1.6c-1-0.4-2.1-0.6-3.3-0.6c-1.4,0-2.6,0.3-3.7,1
		c-1.1,0.7-2.1,1.7-2.7,2.9c-0.7,1.2-1,2.6-1,4.2c0,1.6,0.4,3,1.1,4.3c0.7,1.3,1.7,2.3,2.9,3C142.8,48.3,144.1,48.7,145.5,48.7z"/>
	<path d="M180.3,26.1l0.9,8.1L181,33c0.9-1.8,2-3.3,3.5-4.5s3-2.2,4.4-2.9c1.5-0.7,2.6-1,3.3-1l-0.5,9.5c-2.2-0.3-4.1,0.1-5.7,1.1
		c-1.6,1-2.8,2.3-3.6,3.9c-0.9,1.6-1.3,3.3-1.3,5v11.5h-9.4V26.1H180.3z"/>
	<path d="M209,57c-2.7,0-4.9-0.8-6.7-2.5c-1.8-1.6-2.7-3.8-2.8-6.4v-22h9.5v18.6c0.1,1.3,0.4,2.4,1,3.1c0.6,0.8,1.6,1.2,3,1.2
		s2.6-0.5,3.6-1.4s1.8-2.2,2.4-3.9c0.6-1.6,0.8-3.5,0.8-5.6v-12h9.5v29.5h-8.6l-0.7-5.4l0.1,0.6c-0.7,1.2-1.5,2.3-2.6,3.2
		c-1,0.9-2.3,1.7-3.7,2.2C212.4,56.7,210.8,57,209,57z"/>
	<path d="M247.5,26.1l0.7,5.3l-0.1-0.5c1-1.8,2.5-3.3,4.4-4.5c1.9-1.1,4.2-1.7,7-1.7c2.8,0,5.1,0.8,7,2.5c1.9,1.6,2.8,3.8,2.9,6.4
		v22.1h-9.5V37c0-1.3-0.4-2.4-1-3.1c-0.7-0.8-1.7-1.2-3.3-1.2c-1.4,0-2.7,0.5-3.8,1.4s-1.9,2.2-2.5,3.8s-0.9,3.5-0.9,5.6v12h-9.5
		V26.1H247.5z"/>
	<path d="M291.5,56.4c-2.7,0-5.2-0.6-7.5-1.7c-2.2-1.1-4-2.8-5.3-5.1s-2-5.2-2-8.8c0-3.3,0.7-6.2,2-8.6c1.4-2.4,3.1-4.3,5.3-5.6
		c2.2-1.3,4.5-2,7-2c2.9,0,5.1,0.5,6.7,1.5c1.5,1,2.8,2,3.7,3.2l-0.4,1.1l0.9-4.3h8.8v29.5h-9.5v-6.4l0.7,2c-0.1,0-0.4,0.3-0.8,0.8
		c-0.5,0.5-1.1,1.1-2,1.8s-2,1.3-3.2,1.8C294.8,56.1,293.2,56.4,291.5,56.4z M294.2,48.7c1.1,0,2.1-0.2,3-0.5s1.7-0.8,2.4-1.5
		c0.7-0.7,1.3-1.5,1.8-2.5V37c-0.4-1-0.9-1.8-1.6-2.5s-1.6-1.2-2.6-1.6c-1-0.4-2.1-0.6-3.3-0.6c-1.4,0-2.6,0.3-3.7,1
		s-2.1,1.7-2.7,2.9c-0.7,1.2-1,2.6-1,4.2c0,1.6,0.4,3,1.1,4.3s1.7,2.3,2.9,3C291.5,48.3,292.8,48.7,294.2,48.7z"/>
</g>
<g>
	<g>
		<path d="M39,52.5c-0.1,0-0.1,0-0.2,0c-1.1-0.4-2.1-0.9-3.1-1.5c-2.6-1.6-4.7-3.8-6.2-6.4c-1.5-2.7-2.4-5.8-2.4-8.9
			c0-4.8,1.9-9.3,5.3-12.7s7.9-5.3,12.7-5.3s9.3,1.9,12.7,5.3s5.3,7.9,5.3,12.7c0,3.4-0.9,6.7-2.7,9.5c-1.7,2.8-4.2,5-7.1,6.5
			c-0.6,0.3-1.2,0.6-1.9,0.8c-0.3,0.1-0.6,0-0.6-0.3c-0.1-0.3,0-0.6,0.3-0.6c0.6-0.2,1.2-0.5,1.8-0.8c5.7-2.9,9.2-8.7,9.2-15.1
			c0-9.3-7.6-16.9-16.9-16.9s-16.9,7.6-16.9,16.9c0,6,3,11.4,8.1,14.5c0.9,0.6,1.9,1,2.9,1.4c0.3,0.1,0.4,0.4,0.3,0.6
			C39.4,52.4,39.2,52.5,39,52.5z"/>
		<path d="M51.8,49.4c-0.2,0-0.4-0.1-0.4-0.3c-0.1-0.2,0-0.6,0.2-0.7c4.8-2.5,7.8-7.4,7.8-12.8c0-7.9-6.4-14.3-14.3-14.3
			s-14.3,6.4-14.3,14.3c0,5,2.6,9.6,6.9,12.2c0.2,0.1,0.3,0.5,0.2,0.7s-0.5,0.3-0.7,0.2c-4.6-2.8-7.3-7.7-7.3-13.1
			c0-8.4,6.9-15.3,15.3-15.3s15.3,6.9,15.3,15.3c0,5.8-3.2,11-8.4,13.7C52,49.4,51.9,49.4,51.8,49.4z"/>
	</g>
	<path d="M56.7,73.1c-0.8,0.1-4.4,0.8-5.2,0.9s-0.1-1.6-2-4c-0.6-0.8-0.5-4.6-0.2-5.7c1.5-5.9,2.6-5.9,3.2-9.5
		c0.6-3.7,1.4-9.1,0.9-10.5s-6.8-6.5-6.7-6.7c0.4-2.1,0-7.1-1.6-7.3c-1.6,0.2-2.1,5.2-1.6,7.3c0.1,0.3-6.2,5.4-6.7,6.7
		c-0.5,1.4,0.3,6.8,0.9,10.5c0.6,3.6,1.7,3.6,3.2,9.5c0.3,1.1,0.4,4.9-0.2,5.7c-1.9,2.4-1.2,4.1-2,4s-4.4-0.8-5.2-0.9
		s-4.9-1-3.9,2.8s8.2,3.8,6.9,3.9c-1.4,0.1-1,0.3-1.7,0.2c-0.6-0.1-1.7,0-1.7,0.4c-0.1,0.4,0.3,0.1,0.6,0.5c0.4,0.5,1,1,2,1
		c1.2,0,4.9,0.5,7.5,0.4c0.6,0,1.3-0.1,2-0.2c0.8,0.1,1.4,0.1,2,0.2c2.5,0.1,6.2-0.4,7.5-0.4c1,0,1.6-0.5,2-1c0.3-0.3,0.6,0,0.6-0.5
		c-0.1-0.4-1.1-0.5-1.7-0.4c-0.6,0.1-0.3-0.2-1.7-0.2c-1.4-0.1,5.9-0.1,6.9-3.9C61.5,72.1,57.5,73,56.7,73.1z M47.3,55
		c-1.5-0.7,0.1-2.6,0.8-4.6c0.3,0,0.6-0.4,0.8-1s0.1-1.2-0.2-1.3c-0.1,0-0.2,0-0.3,0.1c-0.2-1.9-1.1-3.8-3.3-3.8s-3.3,1.8-3.3,3.7
		c-0.1,0-0.1,0-0.2,0c-0.3,0.1-0.4,0.6-0.2,1.3c0.2,0.5,0.5,0.9,0.8,1c0.8,2.1,2.3,3.9,0.8,4.6c-0.9,0.4-2-0.8-2.8-2.9
		c-0.5-1.4,0-2.1-0.5-6.4c-0.1-0.7,5.5-6.5,5.5-6.5s5.6,5.7,5.5,6.5c-0.5,4.3,0,5-0.5,6.4C49.3,54.2,48.2,55.4,47.3,55z"/>
	<g>
		<path d="M45.1,4.9c-22.1,0-40,17.9-40,40c0,12.2,5.5,23.1,14.1,30.5c0.3-1,0.7-1.9,1.1-2.9C12.8,65.8,8,55.9,8,44.9
			c0-20.4,16.6-37,37.1-37S82.2,24.5,82.2,45c0,11.7-5.5,22.2-14,29c0.4,1,0.7,2,0.9,3C78.8,69.7,85,58.1,85,45.1
			C85.1,22.9,67.1,4.9,45.1,4.9z"/>
	</g>
	<g>
		<path d="M66,82.6H24.1c-0.3,0-0.5-0.2-0.5-0.5s0.2-0.5,0.5-0.5H66c0.3,0,0.5,0.2,0.5,0.5S66.3,82.6,66,82.6z"/>
	</g>
</g>
</svg>
